<?xml version="1.0" standalone="no"?>
<!DOCTYPE svg PUBLIC "-//W3C//DTD SVG 20010904//EN"
 "http://www.w3.org/TR/2001/REC-SVG-20010904/DTD/svg10.dtd">
<svg version="1.0" xmlns="http://www.w3.org/2000/svg"
 width="860.000000pt" height="900.000000pt" viewBox="0 0 860.000000 900.000000"
 preserveAspectRatio="xMidYMid meet">
<metadata>
Created by potrace 1.16, written by Peter Selinger 2001-2019
</metadata>
<g transform="translate(0.000000,900.000000) scale(0.100000,-0.100000)"
fill="#000000" stroke="none">
<path d="M3305 8594 c-91 -9 -236 -36 -324 -60 -265 -71 -511 -231 -574 -371
-89 -199 -71 -350 51 -427 20 -13 80 -39 132 -60 163 -63 229 -98 274 -146 56
-60 71 -105 71 -215 0 -76 -4 -97 -25 -138 -30 -60 -72 -98 -152 -138 -119
-60 -88 -59 -1314 -59 -944 0 -1123 -2 -1133 -14 -9 -10 -11 -303 -8 -1147 2
-1014 4 -1140 19 -1187 79 -254 237 -373 455 -342 88 12 150 38 201 85 59 53
95 114 152 262 55 142 79 184 123 217 42 31 122 27 227 -9 69 -24 94 -39 132
-78 128 -129 226 -332 280 -581 32 -149 33 -479 1 -651 -57 -304 -130 -484
-262 -642 -79 -94 -206 -149 -324 -141 -54 4 -63 8 -96 44 -35 38 -48 64 -125
256 -74 189 -172 267 -354 284 -174 16 -317 -76 -394 -254 l-33 -77 -3 -1185
c-2 -944 0 -1189 10 -1203 12 -16 77 -17 1142 -7 1242 11 1206 9 1343 74 169
80 248 228 222 413 -25 178 -106 256 -374 358 -157 60 -191 88 -209 170 -14
64 35 223 87 282 111 126 354 247 597 297 213 43 395 44 651 1 245 -41 406
-97 549 -189 174 -113 234 -207 235 -370 l0 -88 -42 -38 c-29 -25 -75 -50
-145 -75 -268 -100 -349 -170 -384 -336 -26 -123 -2 -243 65 -328 45 -56 139
-116 234 -148 l82 -28 1141 -3 c1058 -2 1142 -1 1155 14 12 14 15 208 19 1193
l5 1176 33 69 c56 119 134 175 253 184 128 9 230 -37 290 -129 17 -28 53 -105
79 -172 25 -67 53 -133 60 -147 80 -150 230 -178 442 -83 96 43 198 162 281
329 83 165 144 409 169 677 19 192 -12 453 -78 653 -78 241 -223 450 -352 507
-163 73 -298 75 -378 5 -46 -41 -74 -91 -122 -218 -50 -134 -74 -181 -118
-229 -90 -100 -293 -120 -404 -40 -48 35 -101 113 -132 194 l-23 60 -5 1157
c-3 636 -9 1160 -13 1165 -5 4 -540 10 -1190 13 l-1182 5 -66 32 c-155 76
-217 210 -174 376 31 120 90 171 289 247 191 73 237 105 272 189 28 68 12 199
-40 314 -38 84 -170 201 -308 273 -134 69 -298 117 -523 154 -123 20 -354 33
-440 24z m364 -90 c247 -36 415 -83 557 -155 90 -46 214 -137 249 -183 35 -47
77 -173 78 -236 2 -106 -37 -143 -224 -214 -151 -57 -193 -79 -250 -133 -62
-58 -96 -128 -108 -222 -25 -195 61 -343 246 -422 l78 -34 1153 -3 1152 -2 0
-1091 c0 -1210 -2 -1174 66 -1316 82 -171 231 -252 414 -224 137 22 228 87
288 208 16 32 49 110 73 173 34 89 53 125 86 159 l42 44 83 -5 c146 -9 230
-56 326 -181 93 -121 173 -315 214 -520 32 -160 32 -440 1 -612 -42 -232 -74
-337 -138 -465 -112 -223 -237 -326 -411 -338 -123 -8 -150 19 -233 233 -74
190 -124 260 -223 311 -68 35 -182 51 -259 36 -155 -29 -247 -118 -310 -301
-18 -52 -19 -107 -19 -1193 l0 -1138 -1093 0 c-1064 0 -1096 1 -1173 20 -199
51 -295 168 -281 345 6 87 35 152 88 199 48 44 84 63 249 127 206 80 260 145
247 300 -3 38 -19 102 -38 150 -27 71 -41 94 -94 146 -176 174 -416 270 -815
329 -155 22 -441 15 -580 -16 -261 -57 -456 -148 -608 -285 -90 -81 -148 -231
-140 -358 9 -127 58 -177 252 -252 217 -84 278 -128 312 -226 27 -79 25 -199
-5 -261 -40 -83 -130 -147 -257 -183 -52 -15 -154 -18 -859 -25 -440 -5 -941
-9 -1112 -9 l-313 -1 0 1143 c0 1124 0 1145 20 1203 34 99 87 166 163 207 36
19 57 22 142 22 88 -1 106 -4 150 -27 82 -43 120 -96 180 -253 56 -146 88
-207 134 -248 75 -68 178 -73 333 -17 75 27 94 39 147 94 181 184 275 417 335
827 64 436 -71 943 -315 1188 -109 109 -325 164 -436 110 -74 -36 -111 -95
-195 -314 -36 -96 -49 -117 -97 -166 -66 -65 -118 -84 -231 -84 -160 1 -260
95 -310 291 -19 75 -20 114 -20 1161 l0 1083 1084 0 c892 0 1097 2 1158 14
214 41 345 147 385 310 14 59 15 81 5 148 -26 182 -104 265 -328 349 -137 52
-192 80 -224 114 -23 24 -25 34 -25 113 1 155 61 253 221 361 148 99 393 181
614 204 94 10 303 5 399 -9z"/>
</g>
</svg>
